<?xml version="1.0" encoding="utf-8"?>
<!-- Generator: Adobe Illustrator 23.1.0, SVG Export Plug-In . SVG Version: 6.00 Build 0)  -->
<svg version="1.1" id="Layer_1" xmlns="http://www.w3.org/2000/svg" xmlns:xlink="http://www.w3.org/1999/xlink" x="0px" y="0px"
	 viewBox="0 0 1184.6 300" style="enable-background:new 0 0 1184.6 300;" xml:space="preserve">
<style type="text/css">
	.st0{fill:#F44502;}
	.st1{fill-rule:evenodd;clip-rule:evenodd;fill:#F44502;}
</style>
<g>
	<g>
		<g>
			<path class="st0" d="M387,191c2.7,0.2,4.5,0.7,5.4,1.6c0.9,0.9,1.4,2.6,1.6,5.2c0.4,2.9,0,7.2-1,12.8c-1,5.6-2.3,10.6-3.9,14.9
				c-0.9,2-0.5,3.1,1.4,3.3c1.4,0,5.5-0.3,12.2-0.8c9.4-1.1,16-1.9,19.8-2.4c3.8-0.5,16.3-1.9,37.5-4.1c15.8-1.8,25.3-2.7,28.7-2.7
				c3.4,0,5.7,0.9,7.2,2.7c2.5,3.8,3.1,6.8,1.6,9.1c-1.4,2.3-5.9,5-13.3,8.3c-11.4,5.3-25.3,9-41.7,11.1c-16.4,2.2-38.7,3.3-67,3.3
				c-21.2,0-34.9-0.2-41.2-0.7c-6.3-0.5-11.1-1.5-14.5-3.1c-10-5.1-12.2-10.6-6.8-16.6c1.6-1.8,4-2.9,7.2-3.4
				c3.2-0.5,10.4-0.7,21.6-0.7c0.7,0,1.8,0,3.3,0c4.9,0,8.3,0,10.3,0c2,0,4.2-0.2,6.7-0.7c2.4-0.4,4-0.9,4.6-1.4
				c0.6-0.4,1.4-1.5,2.3-3.3c0.9-1.7,1.5-3.3,1.8-4.8c0.3-1.4,0.6-3.9,1-7.3c0.2-1.3,0.4-2.2,0.5-2.7c1.1-7.2,2.7-12,4.9-14.4
				C379.4,191.6,382.7,190.5,387,191z M423,94.4c2.3,2.4,3.4,9.2,3.4,20.2c0,7.1-0.3,12.2-1,15.5c-0.6,3.3-2.1,7-4.5,11.1
				c-4,7.3-7,12.2-9.1,14.8c-2.1,2.6-5.4,5.7-9.9,9.1c-4.9,3.6-10.5,5.7-16.7,6.2c-6.3,0.5-11-0.6-14.3-3.5c-3.3-2.7-4.7-8-4.3-15.8
				c0.4-7.8,2.4-14.1,6-19c2.5-3.8,7.7-9.3,15.5-16.6c7.8-7.2,15.2-13.6,22.3-19C416.5,93,420.7,92,423,94.4z M405.5,128
				c-1.8,0.5-5,3.4-9.5,8.4c-2.7,3.1-4.9,6-6.7,8.7c-1.7,2.7-2.4,4.4-2,5.2c0.9,1.1,2.4,1.2,4.6,0.4c2.2-0.8,4.5-2.5,7.1-5
				c2.5-2.5,4.4-5.1,5.4-7.6C407.7,130.6,408,127.2,405.5,128z"/>
			<path class="st0" d="M644.7,123.7c1.8,5.6-1.2,11-9.1,16.2c-7.9,5.2-21.2,10.5-39.8,15.9c-14.9,4.2-25.1,7.3-30.7,9.2
				c-3.6,1.5-13.9,4.4-30.7,9c-15.4,3.8-30.1,5.6-44,5.4c-10.5,0-18-0.6-22.6-1.9c-4.5-1.3-6.8-3.3-6.8-6c0-2.4,2-4.2,6.1-5.6
				c4.1-1.4,12.3-3,24.6-5c5.4-0.7,10-1.4,13.7-2c3.7-0.6,7.6-1.4,11.5-2.2c4-0.8,8.4-1.9,13.3-3.1c4.9-1.3,10.1-2.6,15.8-4.1
				c5.6-1.4,13-3.4,22.3-6c22.6-6.2,38-10.6,46.2-13.2c8.2-2.6,13.6-4.8,16.3-6.7C638.2,118.3,642.8,118.3,644.7,123.7z M574,179.1
				c4.3,0,7.6,1.9,9.6,5.7c2.1,3.8,2.7,8.7,1.9,14.7c-0.8,6-3,11.8-6.7,17.4c-1.6,2.7-3.1,6-4.3,9.9c-1.3,3.9-2,7.1-2.2,9.5
				c-0.2,2.4,0.2,3.9,1.1,4.2c0.5,0,3.6-1,9.1-3.1c5.5-2.1,11.8-4.5,18.8-7.3c7-2.8,12.7-5.2,17.3-7.2c3.3-1.4,5.5-2.2,6.7-2.3
				c1.2-0.1,2.4,0.7,3.7,2.3c1.4,1.8,1.2,4-0.7,6.5c-1.9,2.5-5.3,5.2-10.3,8c-5,2.8-11,5.6-18.1,8.3c-7.4,2.9-12.8,5.3-16,7.2
				c-3.3,1.9-6,4.3-8.2,7.2c-4.3,6-7.9,10.6-10.6,14c-2.7,3.3-5.2,5.9-7.5,7.6c-2.3,1.7-4.8,3.1-7.7,4.2c-8.7,3.6-16.9,4.4-24.5,2.3
				c-7.6-2.1-11.4-6-11.4-11.8c0-4.2,2.1-8.2,6.4-12.1c4.3-3.9,11.2-8.3,20.8-13.2l15.5-7.3v-11.1c0-7.1,1.4-13.9,4.1-20.4
				c1.1-2.9,1.9-5.2,2.6-7.1c0.6-1.8,0.8-2.7,0.4-2.7c-1.6,0-5.6,1.9-11.8,5.6c-6.2,3.7-10.8,6.9-13.7,9.6c-4,3.6-7.3,5.4-10.1,5.3
				c-2.7-0.1-5.3-2.2-7.6-6.4c-1.6-3.1-2.2-5.2-1.8-6.3c0.4-1.1,2.8-3.5,6.9-7.3c5.4-4.7,13.9-10,25.5-15.8
				C562.8,181.8,570.4,179.1,574,179.1z M543.6,57.1c1.1-0.4,2.4,0.2,4.1,1.6c1.4,1.5,2.2,3,2.2,4.8c0,1.7-0.6,5.1-1.9,10.2
				c-1.6,7.6-2.1,12.6-1.4,14.9c0.9,2.5,4.5,3.6,10.7,3.3c6.3-0.4,14.3-2.1,24.1-5.2c7.6-2.5,12.5-3.8,14.5-3.9
				c2.1-0.1,3.7,0.7,4.8,2.3c1.8,2.2,2.6,3.8,2.3,4.9c-0.3,1.1-1.8,3.1-4.5,6c-8.3,9.2-22.1,14-41.3,14.1c-9.6,0-16.8-1.1-21.5-3.3
				c-4.7-2.2-8.1-6-10.1-11.4c-1.6-4.5-1.3-10.1,1-16.7c2.3-6.6,5.6-12,9.9-16.2C540.1,59.3,542.5,57.5,543.6,57.1z M550.9,259.6
				c-1.5,0.5-3.7,1.5-6.8,3c-11.2,5.8-16.1,10.9-14.7,15.2c0.7,1.5,1.5,2.2,2.2,2.3c0.7,0.1,2.1-0.4,4.1-1.5
				c2.9-1.5,7.1-4.8,12.6-9.9c5.5-5.2,8.3-8.3,8.3-9.4C556.6,257.7,554.7,257.8,550.9,259.6z"/>
			<g>
				<path class="st0" d="M763.8,145.5c4.4,0.8,5,10.5,1.9,29.2c-1.8,10.4-3,21.1-3.5,32.3c-0.8,14.7-2.1,28.6-3.7,41.6
					c-1.6,13.1-3.1,20.8-4.3,23.2c-1.4,2.4-3.6,3.8-6.7,4.1c-3.1,0.3-5.4-0.6-7.1-2.9c-1.1-1.4-1.7-7.6-1.8-18.4
					c-0.1-10.8,0.4-18.2,1.3-22c0.6-2.1,0.3-3.1-0.8-3.1c-1.4,0.2-5.8,2.9-13.4,8.1c-9.7,7-22.9,14.8-39.5,23.2
					c-16.6,8.5-28.2,13.5-34.7,15.1c-4.5,1-7.9,1-10.1,0c-1.8-0.8-3.1-2.4-3.9-4.7c-0.8-2.3-0.8-4.2,0-5.6
					c2.1-3.5,21.5-13.8,58.4-30.9c7.4-3.5,16.4-8.3,27-14.4c10.6-6.1,16.6-9.9,18-11.5c0.8-1,3.1-9.9,6.8-26.8
					c1.9-8.8,3.5-15.5,4.6-20.1c1.2-4.6,2.2-8.1,3.2-10.5c1-2.4,2.1-4.1,3.3-5C760,145.7,761.6,145.4,763.8,145.5z"/>
				<path class="st0" d="M707.8,162.6c-0.3-1.7-1.3-3.2-3.1-4.5c-7.2-5.6-15.9-4.2-26.1,4.3c-2.9,2.5-5.7,5.7-8.4,9.4
					c-2.7,3.7-5.1,7.7-7.2,11.8c-2.1,4.2-3.6,8.2-4.5,12c-1.6,6.9,0.1,12.6,5.2,17.3c5.1,4.6,11,5.8,17.7,3.7
					c4.5-1.4,8.3-3.8,11.4-7.1c3.3-3.4,6.3-8.7,9.1-15.9c2.8-7.2,4.6-14.1,5.3-20.8C707.9,167.8,708.1,164.4,707.8,162.6z
					 M690.3,186.1c-3.1,6.5-6,11-8.7,13.3c-1.3,1.1-2.1,1.6-2.5,1.6c-0.5,0-0.4-1.6,0.5-4.9c1.8-7.6,5.2-14.1,10.1-19.6
					c1.8-2,3.2-3.1,4.1-3.3C696.2,172.8,695,177.1,690.3,186.1z"/>
			</g>
		</g>
		<g>
			<path class="st0" d="M934.6,178.4c3.9-5.6,7.3-13.3,10.2-23.1c2.2-7.1,5-12.2,8.4-15.5c2-2.2,3.6-3.4,4.9-3.8
				c1.3-0.4,2.7-0.1,4.3,0.8c2.9,1.6,4.3,4,4.3,7.1c0,4.2-1.2,11.7-3.7,22.7c-2.4,11-4.8,19.8-6.9,26.5c-3.1,8.1-5,20.9-5.7,38.3
				c-0.5,10.5-1.2,18.2-1.9,23c-0.7,4.8-1.9,8.2-3.5,10.3c-1.6,2.1-4.1,3.2-7.3,3.4c-2.5,0.2-4.6-0.1-6.2-0.8
				c-1.6-0.7-3.4-2.2-5.2-4.4c-2.2-2.9-3.4-5.7-3.8-8.6c-0.4-2.8-0.2-9.7,0.5-20.8l1.4-23.4L934.6,178.4z"/>
			<path class="st0" d="M1002.2,210.6c2.2,3.1,3.1,5.4,2.8,7.1c-0.4,1.6-2.4,3.4-6.1,5.4c-3.4,2-8.1,4.2-14,6.7
				c-5.9,2.4-11.3,4.4-16.3,6c-5,1.5-7.9,2.1-8.6,1.8c-2.9-1.4-4-4.6-3.3-9.4c0.7-4.8,2.7-8.7,6.1-11.8c2.4-2.2,6.9-4.3,13.6-6.5
				C990.1,205.6,998.8,205.9,1002.2,210.6z"/>
			<path class="st0" d="M1059.1,135.7c3.1,4,4.2,16.8,3.4,38.5c-0.8,21.6-3,35.2-6.7,40.6c-1.5,2.2-3.5,4.3-6.1,6.4
				c-2.6,2.1-5.4,3.8-8.4,5c-3,1.3-5.6,1.9-7.7,1.9c-3.4,0-7.2-2.6-11.4-7.7c-4.2-5.2-8.1-12-11.7-20.5c-3.6-8.9-5.4-18.9-5.4-30.2
				c0-8.3,0.2-13.4,0.7-15.1c0.5-1.7,2.2-3.3,5.3-4.8c2.9-1.4,4.8-2.1,5.8-1.9c1,0.2,2.3,1.4,3.9,3.5c1.8,2.2,3.3,2.9,4.5,2.3
				c1.2-0.6,4.2-3.8,9.1-9.6C1045.2,131.8,1053.5,129,1059.1,135.7z M1045.8,159.9c-0.6-1.6-3.2,1-7.9,7.9l-7.1,10.3l2.4,15
				c1.4,9.4,2.6,14.7,3.5,15.8c2.9,2.9,5.3-4.4,7.3-22l0.3-3C1045.9,169.5,1046.3,161.5,1045.8,159.9z M1170.5,241.7
				c2.2,0.5,3,2.9,2.6,6.9c-0.5,4.1-1.9,7.7-4.5,10.7c-3.6,4.2-10.3,8.8-20.1,14c-9.8,5.2-19.8,9.2-30.2,12.1
				c-19.2,5.8-39.9,5.2-62-1.9c-8-2.5-13.2-5.2-15.6-8c-2.4-2.8-2.4-6.2,0.1-10.2c1.8-2.7,4.2-4.3,7.2-4.8c3-0.5,6,0.3,9.1,2.3
				c3.6,2.2,10.1,4,19.6,5.4c19.7,3.4,43.2-1.9,70.4-16C1161.5,245.1,1169.2,241.5,1170.5,241.7z M1172,126.5
				c1.5-1.4,3.6-2.2,6.1-2.2c2.5,0,4.2,0.3,5,0.8c0.8,0.5,1.2,1.8,1.2,3.8c0,3.8-1.3,9.4-3.9,16.8c-2.6,7.4-5.6,14.1-8.8,20.1
				c-6.5,11.4-12.3,25.8-17.4,43.2c-1.8,5.4-4.3,11.2-7.3,17.4c-2.2,4.3-3.9,7.2-5.3,8.4c-1.4,1.3-3.4,1.9-6.1,1.9
				c-2.9,0-4.7-0.4-5.4-1.2c-0.7-0.8-1.1-3-1.1-6.7c0-4.7,0.8-10.3,2.4-16.9c1.6-6.3,2.2-9.8,1.6-10.3c-0.9-0.7-6.6,1.1-17,5.4
				c-10.4,4.4-16.7,7.4-18.9,9.2c-2.5,2.5-6,3.6-10.5,3.3c-4.4-0.4-7.4-1.8-8.8-4.3c-1.6-3.3-0.8-6.2,2.5-8.7
				c3.3-2.5,13.5-8.2,30.7-17.1c13.8-7.2,22.6-12.3,26.5-15.1c3.9-2.8,7.9-7.2,12.1-13.2c6-8.2,11.2-16.5,15.8-25
				C1168.3,131.2,1170.5,127.9,1172,126.5z M1123.8,143.5c3.4-0.1,6.2,1.4,8.2,4.5c3.1,4.2,4.1,7.3,3,9.4c-1.1,2.1-4.6,4-10.6,5.8
				c-8.2,2.5-14.9,5.8-20.4,9.8c-5.1,3.8-8.7,5.8-10.7,6.1c-2.1,0.3-4.4-0.9-6.9-3.4c-4.3-3.8-4.8-7.9-1.2-12.2
				c3.5-4.3,11.1-9.2,22.7-14.7C1115,145.3,1120.3,143.6,1123.8,143.5z"/>
		</g>
		<g>
			<path class="st0" d="M866.5,147.1c4.9-0.3,8.4,0.2,10.3,1.6c1.7,1,3.3,3.2,4.7,6.4c1.4,3.2,2.1,6.2,2.1,9
				c0,2.6-1.8,10.7-5.3,24.2c-3.6,13.5-6.4,22.8-8.5,27.9c-3,7.5-11,14.5-24.2,21.1c-8.9,4.5-12.9,7.4-12,8.6c0.5,0.7,2.7,0.7,6.5,0
				c8-1.6,20.3-7.3,37-17.2c3.8-2.3,8.6-4.6,14.2-7.2c5.6-2.5,11.2-4.8,16.7-6.8c5.5-2,10.8-3.8,15.9-5.3c5.1-1.6,9.1-2.5,12-2.9
				c2.9-0.3,4.5-0.1,4.8,0.8c0,1.6-1.1,3.6-3.4,6.1c-2.3,2.5-5.4,5.2-9.4,7.9c-4,2.8-8.4,5.4-13.3,7.8
				c-11.6,5.9-23.5,12.7-35.7,20.3c-11.3,7.1-20.6,11.9-28,14.5c-7.4,2.5-14.4,3.3-21,2.2c-4-0.5-6.9-1.3-8.6-2.3
				c-1.7-1-3.4-2.9-4.9-5.5c-3.8-6.3-4.5-11.4-2-15.4c2.5-4,10-9.8,22.5-17.5l17.2-10.4l1.3-11.2c1.2-8.3,2.7-16,4.4-22.9
				c0.5-2.1,0.9-4,1.3-5.7c0.3-1.7,0.6-3.2,0.8-4.3c0.2-1.1,0.2-1.7,0-1.7c-0.3,0-4.3,2.4-11.7,7.2c-7.5,4.8-11.9,7.2-13.2,7.2
				c-1.3,0-2.7-1.3-4.2-4c-1.5-2.7-2.2-5.3-2.2-7.7c0-2.1,2.7-5.6,8.1-10.4c5.4-4.9,10.7-8.7,15.9-11.5
				C857.6,148.4,861.6,147.5,866.5,147.1z"/>
		</g>
	</g>
	<g>
		<g>
			<path class="st0" d="M1117.9,63.1c-0.2,0.2-0.3,0.5-0.4,0.8c-2,3.9-7.8,13.8-17.3,29.5c-9.5,15.7-15.1,24.6-16.7,26.7
				c-1.9,2.3-3.2,3.6-3.9,4c-0.7,0.4-1.6,0.4-2.6-0.2c-1.4-0.9-1.5-2.7-0.5-5.5c1-2.8,4.2-8.9,9.5-18.4c5.4-9.9,9.9-19,13.7-27.3
				c8.2-18.5,15.7-32.3,22.4-41.4c3.8-5.2,7.5-11.3,11-18.4c2.1-4.1,3.7-6.9,4.7-8.5c1.1-1.6,2.1-2.7,3-3.2c1.7-1,2.9-0.8,3.5,0.6
				c0.6,1.4,0.7,4.1,0.3,8.2c-0.4,4.1-1.4,7.9-2.9,11.3c-1.6,3.5-4.7,8.8-9.4,16l-5.2,8.3L1117.9,63.1z"/>
		</g>
		<g>
			<path class="st0" d="M1149.6,47.3l5.8-7.7c5-6.9,8.7-11.6,11.3-14.1c2.6-2.5,5.5-4.5,8.9-5.8c3.4-1.4,5.7-1.9,7-1.5
				c1.3,0.3,1.8,1.6,1.3,3.7c-0.2,1.2-0.8,2.5-2,4.1c-1.1,1.5-3.1,3.9-6.1,7.2c-5.1,5.4-9.4,10.9-12.9,16.4
				c-6.1,9.6-16,21-29.6,34.3c-6.2,6.1-12.8,13.2-19.8,21.4c-6.8,8.1-11.2,13-13.3,14.7c-2.1,1.8-3.7,2-4.8,0.7
				c-0.7-1-1-1.9-0.8-2.8c0.2-0.9,1-2.6,2.5-5.2c1.4-2.3,7.5-10.5,18.5-24.7c11-14.2,17.9-22.8,20.8-25.9c0.2-0.2,0.4-0.4,0.6-0.7
				L1149.6,47.3z"/>
		</g>
		<path class="st0" d="M1151.9,89.3c-0.2-0.6-0.5-1.1-1-1.4c-0.5-0.3-1.2-0.4-2-0.2c-1.2-0.2-5.5,0.9-13,3.3c-11.7,4-24.2,7-37.5,9
			c-4.5,0.8-8.4,1.3-11.9,1.5c-3.4,0.3-6.4,0.4-8.9,0.3c-2.5-0.1-4.5-0.4-5.9-1c-1.8-0.6-2.8-1-3.1-1.4c-0.3-0.4-0.3-1.2,0-2.4
			c0.5-1.4,2.4-4.1,5.8-8.1c0.7-0.9,1.5-1.8,2.3-2.8c0.8-1,1.5-1.9,2.1-2.9c0.6-1,1.3-2,2-2.9c0.7-0.9,1.3-1.8,1.9-2.8
			c3.9-6.4,4.2-11.4,0.9-14.9c-1.7-2-4.6-3.4-8.7-4.1c-4.2-0.8-9.4-0.9-15.5-0.3c-3.1,0.3-6.3,0.7-9.5,1.3c-1.7,0.3-3.4,0.7-5.1,1
			c-6.6,1.9-13.1,3.8-19.7,5.8c-8.5,2.6-15.9,5.5-23.6,9.9c-4.2,2.4-8.5,5.9-13.1,8.2c-0.5,0.4-1.1,0.8-1.6,1.2c-1,0.7-2,1.4-3,2
			c-1,0.6-1.8,1.1-2.5,1.5c-0.7,0.4-1.3,0.7-1.9,1l-3,0.8L976,91l-0.1-0.4l-0.4-10.1c-0.3-3.8-0.7-6.9-1.2-9.4
			c-0.5-2.5-1.1-4.4-1.8-5.7c-1.4-2.5-4.1-4-8.1-4.5c-5.2-0.4-13.2,5.2-23.9,16.7c-3.6,4-6.1,6.7-7.3,8.1c-1.4,1.4-2.3,1.9-2.5,1.5
			c-0.2-0.3,0.4-4.2,1.8-11.8c0.8-3.8,1.4-7,1.6-9.6c0.3-2.6,0.3-4.7,0.1-6.1c-0.3-2-0.6-3.3-0.9-4c-0.2-0.4-0.5-0.7-1-1.1
			c-0.5-0.3-1.1-0.7-1.9-1.2c-1-0.6-1.9-0.9-2.7-1.2c-0.8-0.2-1.6-0.3-2.1-0.2c-1.3,0-3.5,0.7-6.6,2.1c-7,2.8-18.4,11.7-34.1,26.8
			c-11.7,11.1-18,16.8-19,16.9c-0.3,0-0.5,0-0.6-0.2c-0.1-0.2-0.2-0.4-0.2-0.7c-0.1-0.9,0-2.7,0.4-5.3c0.2-1,0.7-4.8,1.6-11.4
			c0.2-0.7,0.4-1.7,0.5-2.9c0.1-1.2,0.4-2.8,0.7-4.8c0.1-0.5,0.1-1.1,0.2-1.8c0.1-0.6,0.1-1.1,0.2-1.6c0.1-0.4,0.2-0.8,0.2-1
			c0-0.3,0.1-0.6,0.2-1l0-0.2c1.5-8.8,1-13.8-1.7-15.1c-0.3-0.1-0.6-0.2-0.9-0.3c-0.3-0.1-0.5-0.2-0.7-0.3c-0.2-0.1-0.3-0.2-0.5-0.2
			c-0.2-0.1-0.3-0.1-0.5,0c-0.4,0.1-1.2,0.4-2.3,1.1l-0.2,0c-0.8,0.4-1.8,1.8-3,4.4c-1.1,2.5-2,5.2-2.5,8c-0.2,0.8-1.5,6.4-4,16.8
			c-1.8,7.7-3.6,15.7-5.5,24.1c0,0.2-0.1,0.4-0.1,0.6c0,0.1,0,0.2,0,0.4c-0.5,7.1,0,13.1,8.2,15.6c3,0.9,4.8,2.6,7.7,2.2
			c1.2-0.6,2.6-1.1,3.9-1.5c0.4-0.2,0.8-0.5,1.2-0.7c3.4-3.4,7.4-7.3,12.1-11.8c7.4-7.3,13.2-13.2,17.2-17.5l13.1-13.5
			c4.5-4.2,6.9-6.2,7.2-5.8c0.3,0.4,0,2.7-1.1,6.9c-0.3,1.3-0.5,2.7-0.8,4.2c-0.4,1.4-0.7,2.9-1,4.6c-0.2,1.7-0.5,3.4-0.9,5.2
			c-0.3,2.5-0.4,4.6-0.3,6.4c0.1,1.8,0.3,3.4,0.6,4.7c0.2,0.8,0.6,1.6,1,2.3c0.4,0.8,0.8,1.5,1.4,2.1c0.5,0.6,1.2,1.2,2,1.8
			c1.4,0.9,2.5,1.4,3.2,1.5c0.7,0.1,1.9-0.1,3.6-0.6c2.4-0.6,4.6-1.8,6.6-3.7c0.9-0.8,2.4-2.4,4.5-4.9c2.1-2.2,4.6-5,7.5-8.5
			c9.9-11.5,15.3-16.8,16.3-16.1c0.5,0.3,0.6,2.1,0.5,5.2c-0.3,6.7,0.3,11.5,1.9,14.4c1.4,3.1,4.1,5.3,7.9,6.5
			c2.5,0.8,5,0.9,7.5,0.5c2.5-0.5,5.1-1.5,7.6-3.2c2.4-1.7,5-3.8,7.8-6.3c0.2-0.2,0.4-0.3,0.5-0.5c0.1,0,0.2,0,0.2,0
			c3.1-2.2,6.6-4,10.3-5.5c0.3-0.2,0.6-0.3,0.9-0.4c0.3-0.1,0.7-0.2,1-0.3c3.7-1.4,7.6-2.5,11.5-3.4c3.3-1,6.5-1.9,9.8-2.7
			c14.2-5.2,23.7-8.1,28.7-8.9c2.4-0.4,4.4-0.7,5.9-0.9c1.5-0.2,2.7-0.3,3.7-0.2c0.5,0,0.8,0.2,0.9,0.4c0.1,0.2,0.2,0.4,0,0.7
			c-0.1,0.3-0.3,0.5-0.6,0.9c-2.2,1.9-4.9,5.2-8.1,9.9c-1.6,2.5-3,4.5-4,6.2c-1,1.7-1.7,3-2.1,4.1c-1.3,3.8-1.1,7.2,0.7,10.3
			c1.7,3.1,4.8,5.5,9.1,7c1.9,0.7,4,1.3,6.4,1.6c2.4,0.3,4.9,0.5,7.7,0.6c2.7,0,5.7-0.1,8.8-0.4c3.1-0.3,6.5-0.9,10.1-1.6
			c3.7-0.7,7.5-1.6,11.4-2.6c4-1,8.2-2.3,12.6-3.7c4.4-1.4,9.1-3,13.9-4.6c2.6-1.1,4.8-2,6.8-2.8c2-0.8,3.5-1.5,4.8-2
			c0.9-0.2,1.7-0.5,2.3-0.9c0.6-0.3,1.2-0.7,1.8-1c0.5-0.3,1-0.5,1.4-0.7c1.1-0.6,1.8-1.2,2.1-1.9
			C1152.6,91.7,1152.6,90.5,1151.9,89.3z"/>
	</g>
</g>
<g>
	<polygon class="st1" points="44.2,191.5 41.7,184.6 46,178.6 38.7,178.9 34.3,173 32.3,180 25.3,182.3 31.4,186.4 31.5,193.8 
		37.2,189.3 	"/>
	<polygon class="st1" points="35.6,160 44.4,169.2 46.3,156.6 57.7,151 46.3,145.3 44.5,132.8 35.6,141.8 23.1,139.7 29,150.9 
		23,162.1 	"/>
	<path class="st1" d="M268,159.6c-3.3-65.9-54.3-121.4-124.6-127.3c-5.4,0-10.9,0-16.3,0C60.1,35.9,5.6,87.6-0.2,156.9
		c0,5.9,0,11.8,0.1,17.7C4,239.7,53.8,293.8,123,300.5c5.9,0,11.8,0,17.7,0c66.6-3.4,121.5-55,127.3-124.6
		C268,170.5,268,165.1,268,159.6z M133.5,291.4C65,291.9,9.5,236.1,8.9,166.1C8.4,97.5,64.4,41.9,134.3,41.5
		c68.7-0.4,124,55.3,124.6,125.3C259.4,235.3,203.5,290.9,133.5,291.4z"/>
	<path class="st1" d="M198.4,123.3c-6.1-0.2-5.1,7.2-5.2,11.9c-0.1,4.1-0.5,10.1,4.9,10c5.2,0,4-6,4.5-10.3
		C201.6,131,203.3,123.5,198.4,123.3z"/>
	<path class="st1" d="M178.1,129.6c1.1,0.7,2.1,0,2.9-0.9c5-5.5,11.3-8.8,18.3-10.8c1.1-0.3,2.2-0.6,2.5-2c-0.1-1.3-1-1.7-2.2-1.8
		c-4.7-0.4-19.4,8.1-21.7,12.6C177.4,127.8,176.9,128.9,178.1,129.6z"/>
	<path class="st1" d="M222.8,135c2.8-5.8,4.9-11.7,4.3-18.2c-0.6-6.5-2.8-11-10.6-12.5c-11.5-2.2-22.7-6.1-30.6-15.6
		c-2-2.3-3.5-2-5.6-0.1c-7.1,6.7-11.9,14.7-13.1,24.4c-1.1,8.8-1.8,9.3-10.6,6.4c-2.3-0.8-4.7-1.7-6.8-2.9
		c-13.9-7.8-20.7-25.8-14.6-38c0.8-1.6,3.8-3.3,1.7-5.1c-2.1-1.9-4.1,0.9-5.7,2c-19.3,13.3-28,32.8-31.2,55.2
		c-1.2,8.2-2.1,16.4-4.6,24.4c-5,15.5-4,29.6,6.8,43c3.6,4.5,10.4,10,5.3,17.9c-1.5,2-2.7,5.1-5.2,0.7c-1-1.7-2.4-3.5-4.1-4.4
		c-9.3-4.9-17.3-11-22.1-20.7c-1.6-2.3-0.6-3.9,1.2-5.7c5.4-5.4,4.7-7.6-2.5-9.9c-8.7-2.8-10.6-11.5-3.9-17.7
		c1.3-1.2,2.9-2.1,4.3-3.2c6.1-4.4,6.2-6.4,0.3-10.9c-12.5-9.7-15.6-22-9-36.3c3.5-7.6,8.2-14.4,14.2-20.3
		c7.4-7.2,14.9-14.2,22.3-21.4c1.3-0.9,2.5-1.9,3.9-2.6c1.8-1,3-2.4,2.1-4.3c-1-2.2-3.1-1.5-4.7-0.9c-32.6,12-57,32.8-70.5,65.3
		c-0.6,1.4-2.8,3.2,0.2,4.3c2.1,0.8,3-0.5,3.9-2.4c3.4-6.9,6.6-13.8,10.7-20.2c10.8-16.9,25.6-29.3,44.4-36.6
		c-0.3,3.9-3.9,5.3-6.2,7.5c-9.8,9.4-19.2,19-24.4,31.8c-6,14.7-3.3,27.8,8.2,36.9c4.5,3.6,5.9,5.8-0.2,9.2
		c-5.5,3.1-7.9,8.5-6.9,14.9c1,6.3,5.3,9.6,11.4,10.8c0.6,0.1,1.1,0.6,1.7,1c-1.2,2.9-4.7,3.8-5.3,6.8c-4.9-1-9.8-3.1-14.7-0.1
		c-7.9,5-9,11.8-2.1,19.4c3.8,4.2,4.9,9,5.3,14c0.4,4.6-0.3,9.3-0.5,14c-2.6-0.4-3.4-2.7-4.6-4.5c-5.2-7.6-10.3-15.3-15.4-22.9
		c-0.7-1.1-1-2.8-2.8-1.9c-1.3,0.6-2,1.9-1.6,3.4c0.3,1.3,0.8,2.6,1.6,3.7c6.8,10.8,14.7,20.7,22.6,30.6c1,1.1,2.1,3.3,3.4,2
		c1.9-2,3.1-4.8,1-7.6c0,0,0,0,0,0c-2.3-11.3,0.9-19.8,12.4-24c7.7-2.2,15-1.9,21.2,4c0.8,0.7,1.9,1.4,1.5,2.7
		c-0.4,1.4-1.8,1-2.8,1.2c-4.5,0.9-9,1.9-13.5,2.7c-1.7,0.3-3.3,0.4-2.8,2.6c0.5,2.4,2.3,1.5,3.8,1.3c4.6-0.9,9.2-1.8,13.8-2.7
		c5.6-1.1,11.6,4.6,11,10.4c-0.2,1.9-1.3,1.9-2.7,2.1c-4.1,0.7-8.2,1.6-12.3,2.5c-1.2,0.3-3,0.1-2.4,2.2c0.4,1.3,1.2,2.1,3,1.5
		c3.3-1.1,7.1-0.4,10.3-2.3c8.1-1.5,4.9,4.8,5.6,8.3c-1.6,5.6-2.6,11.7-9.6,13.2c-1.6,0.4-3.1,0.3-3.1,2.6c0,2.1,1.8,2.6,3.1,2.9
		c5,1.3,10.1,2.2,15.1,3.4c43.4,9.8,77.7-6.3,106.5-37.8c6-6.5,5.6-6.8-1.5-12.4c-1-0.8-1.7-2-2.6-3.1c1-5.6,6.3-7.3,9.8-10.6
		c4.4-4,4.1-7.1-1.1-9.9c-12.9-7-13-8.1-1.5-17.5c0.3-0.3,0.7-0.6,1-0.9c7.6-6.7,7.2-12.1-1.2-17.7c-8.3-5.5-9.3-8.9-5.6-18
		C220,141.2,221.3,138.1,222.8,135z M72.7,212.3C72.7,212.2,72.7,212.2,72.7,212.3c-0.1,0-0.1,0.1-0.2,0.1c-3.1,0.6-6.2,3.2-9.3,4.3
		c-0.9-5.5-4.3-9.7-7.6-14.1c-3.1-4-2.6-7.9,1-11.1c0.5-0.4,1.1-0.7,1.2-1c6.5-0.9,11.6,1.5,15.9,6.4
		C79.2,203,79.1,206.6,72.7,212.3z M124,218.7c-6.7,5.2-7.6,11.8-2.6,17.2c-0.8,0.9-3.4,3.4-4.3,4.3l0,0c-3.3,0.2-3.4-2.1-4.3-3.9
		c-2.6-5.1-5.3-9.1-5.7-15c3.9-1.9,3.9-10,7.6-12C114.3,210.3,122.8,214.3,124,218.7z M129.3,229.7
		C129.3,229.8,129.3,229.8,129.3,229.7c-1.7,1.4-3.4,2.7-5.1,4.1c-0.5-0.5-1.4-1.3-1.5-1.3c-1.6-1.5-2.4-2.7-2.3-4
		c-0.3,2.5-0.3,1.9,0.2-0.9c0.4-1.5,4.9-5.9,4.9-6.1c5-6.3,7.6,2.1,13,1.3c-3.8,2.8-6.4,4.8-9,6.8
		C129.4,229.7,129.4,229.7,129.3,229.7z M120.5,227.7c0.2-1.3,0.6-2.6,1-3.9C121.1,225.1,120.8,226.4,120.5,227.7z M163.7,267.5
		c-19.1,5.4-38.2,3.2-57.8-1.8c3.9-4.7,5.9-10,7.5-15.5c0.4-0.4,0.8-0.9,1.2-1.4c0,0,0,0,0-0.1c1.6-1.3,2.9-3.4,5.7-6l0,0
		c4.7-3.2,7.1-8.8,12-11.8c8.6-6.8,21.3-0.1,26.6,8.2c1,4.3,3,6.8,8,7.2c4.9,0.4,9.8,0.5,14.7,0c10.8-1.2,20.4-6.1,30.3-10.1
		C199,251.8,182.8,262.1,163.7,267.5z M221.3,164.8c7.7,5.2,7.8,7.6,0.5,13.5c-1.4,1.1-2.9,2.2-4.2,3.4c-7.4,6.1-6.4,13.9,2.2,18.2
		c7.4,3.6,7.3,3.6,1,8.8c-2,1.7-4.5,3.1-5.6,5.6c-1.9,3.4-2.5,7.9-1.5,9.5c1.8,2.7,4.8,2,3.8,4.5c-0.4,0.9,0.1,1.1-2.7,2.2
		c-0.1,0-0.2,0.2-0.2,0.2c0,0,0,0-0.1-0.1c-13,6.6-26.1,13-41.2,12.8c-9.1-0.1-11.1-2-11.4-10.9c0.3-2.1,7.4-4.5,0.5-6.3
		c-16.4-4.2-32.3-9.3-46.1-19.5c-6.1-4.7-11-10.6-15.2-16.9c-4.8-7.2-6.4-15.4-3.9-23.9c4.3-14.2,5.4-29,8.1-43.5
		c2.4-13,8.6-24.6,17.3-34.7c1.5-1.8,3.2-3.7,5.6-2.9c2.6,0.8,1.1,3.5,1.3,5.3c1.1,19.1,16.9,34.4,35.5,34.5c4.3,0,6.5-0.5,5.9-6
		c-1-9.5,3.1-17.5,9.3-24.5c1.6-1.9,2.8-2.8,5.2-0.4c8.1,8,18.6,11.8,29.4,14.2c6.6,1.5,9,5.2,8.8,11.5c-0.1,4.1-1.3,8-2.9,11.7
		c-1.9,4.3-3.9,8.6-5.6,13C211.1,153.6,212.8,159,221.3,164.8z"/>
	<path class="st1" d="M173.9,158.2c-5.2,0.9-9.4,4.3-9.1,9.4c0.4,7.6-4,7.1-8.7,6.8c-2-0.1-3.9-0.8-5.9-1.3c-1.3-0.3-2.8-1-3.3,0.9
		c-0.4,1.7,1.1,2.2,2.3,2.8c2.7,1.2,5.6,1.7,7.9,1.5c8.1,0,14.6-2.7,21.1-6.2c4.1-2.3,4.4-5.2,2.9-9
		C179.9,159.6,177.5,157.6,173.9,158.2z M170.2,171.5c-2.2,0.4-2.2-1.8-1.9-3.4c0.8-3.4,2.8-5.7,6.3-6.1c2.7-0.3,2.9,2.2,3.7,3.9
		C176.6,169.5,173.4,170.9,170.2,171.5z"/>
	<path class="st1" d="M130.1,124.7c-2.1,0-3.8,1.6-3.8,3.6v14.8c0,2,1.7,3.6,3.8,3.6c2.1,0,3.8-1.6,3.8-3.6v-14.8
		C133.9,126.3,132.2,124.7,130.1,124.7z"/>
</g>
</svg>
